# xmcd
#
# Track frame offsets:
#       150
#       15510
#       33028
#       49739
#       63497
#       79590
#       93074
#       109369
#       128304
#       143605
#       164191
#       176081
#
# Disc length: 2589 seconds
#
# Revision: 7
# Processed by: cddbd v1.5.1PL2 Copyright (c) Steve Scherf et al.
# Submitted via: WaveLab 4.01
#
DISCID=900a1b0c
DTITLE=Downhill - That one straight line
DYEAR=2005
DGENRE=Bluegrass
TTITLE0=That one straight line
TTITLE1=Hear me out
TTITLE2=In the shadow of a broken heart
TTITLE3=Poor rambler
TTITLE4=Only then will your house be blessed
TTITLE5=Where roses never die
TTITLE6=Into the blue
TTITLE7=To the promised land
TTITLE8=Shes gone gone gone
TTITLE9=Thats all I need to get by
TTITLE10=Sorrow
TTITLE11=Home from the forest
EXTD=
EXTT0=
EXTT1=
EXTT2=
EXTT3=
EXTT4=
EXTT5=
EXTT6=
EXTT7=
EXTT8=
EXTT9=
EXTT10=
EXTT11=
PLAYORDER=
